{
    "asset" : {
        "generator" : "Khronos glTF Blender I/O v1.8.19",
        "version" : "2.0"
    },
    "scene" : 0,
    "scenes" : [
        {
            "name" : "Scene",
            "nodes" : [
                0,
                1,
                2,
                3,
                4,
                5
            ]
        }
    ],
    "nodes" : [
        {
            "mesh" : 0,
            "name" : "Ring.001",
            "translation" : [
                0,
                172.51834106445312,
                494.4249572753906
            ]
        },
        {
            "mesh" : 1,
            "name" : "Ring.002",
            "translation" : [
                -47.110843658447266,
                172.51834106445312,
                1200.3602294921875
            ]
        },
        {
            "mesh" : 2,
            "name" : "Ring.003",
            "rotation" : [
                -0.12071183323860168,
                0.4676651954650879,
                -0.3940812051296234,
                0.7819321751594543
            ],
            "translation" : [
                65.59884643554688,
                190.10084533691406,
                1733.1636962890625
            ]
        },
        {
            "mesh" : 3,
            "name" : "Ring.004",
            "rotation" : [
                -0.19389866292476654,
                0.6800024509429932,
                0.19389866292476654,
                0.6800023913383484
            ],
            "translation" : [
                564.55419921875,
                163.22071838378906,
                1871.2017822265625
            ]
        },
        {
            "mesh" : 4,
            "name" : "Ring.006",
            "rotation" : [
                -0.2988196313381195,
                0.6408641338348389,
                0.2988196313381195,
                0.6408641338348389
            ],
            "translation" : [
                671.1821899414062,
                250.69558715820312,
                1871.2017822265625
            ]
        },
        {
            "mesh" : 5,
            "name" : "Ring.008",
            "rotation" : [
                0.1847657859325409,
                0.6825405955314636,
                -0.1847657710313797,
                0.6825405359268188
            ],
            "translation" : [
                920.3971557617188,
                250.69558715820312,
                1871.2017822265625
            ]
        }
    ],
    "meshes" : [
        {
            "name" : "Torus.003",
            "primitives" : [
                {
                    "attributes" : {
                        "POSITION" : 0,
                        "NORMAL" : 1,
                        "TEXCOORD_0" : 2
                    },
                    "indices" : 3
                }
            ]
        },
        {
            "name" : "Torus.007",
            "primitives" : [
                {
                    "attributes" : {
                        "POSITION" : 4,
                        "NORMAL" : 5,
                        "TEXCOORD_0" : 6
                    },
                    "indices" : 3
                }
            ]
        },
        {
            "name" : "Torus.013",
            "primitives" : [
                {
                    "attributes" : {
                        "POSITION" : 7,
                        "NORMAL" : 8,
                        "TEXCOORD_0" : 9
                    },
                    "indices" : 3
                }
            ]
        },
        {
            "name" : "Torus.014",
            "primitives" : [
                {
                    "attributes" : {
                        "POSITION" : 10,
                        "NORMAL" : 11,
                        "TEXCOORD_0" : 12
                    },
                    "indices" : 3
                }
            ]
        },
        {
            "name" : "Torus.015",
            "primitives" : [
                {
                    "attributes" : {
                        "POSITION" : 13,
                        "NORMAL" : 14,
                        "TEXCOORD_0" : 15
                    },
                    "indices" : 3
                }
            ]
        },
        {
            "name" : "Torus.016",
            "primitives" : [
                {
                    "attributes" : {
                        "POSITION" : 16,
                        "NORMAL" : 17,
                        "TEXCOORD_0" : 18
                    },
                    "indices" : 3
                }
            ]
        }
    ],
    "accessors" : [
        {
            "bufferView" : 0,
            "componentType" : 5126,
            "count" : 2304,
            "max" : [
                22.5,
                28.54364776611328,
                7.314009189605713
            ],
            "min" : [
                -22.5,
                -16.45635223388672,
                -1.6859936714172363
            ],
            "type" : "VEC3"
        },
        {
            "bufferView" : 1,
            "componentType" : 5126,
            "count" : 2304,
            "type" : "VEC3"
        },
        {
            "bufferView" : 2,
            "componentType" : 5126,
            "count" : 2304,
            "type" : "VEC2"
        },
        {
            "bufferView" : 3,
            "componentType" : 5123,
            "count" : 3456,
            "type" : "SCALAR"
        },
        {
            "bufferView" : 4,
            "componentType" : 5126,
            "count" : 2304,
            "max" : [
                22.5,
                28.54364776611328,
                7.314009189605713
            ],
            "min" : [
                -22.5,
                -16.45635223388672,
                -1.6859936714172363
            ],
            "type" : "VEC3"
        },
        {
            "bufferView" : 5,
            "componentType" : 5126,
            "count" : 2304,
            "type" : "VEC3"
        },
        {
            "bufferView" : 6,
            "componentType" : 5126,
            "count" : 2304,
            "type" : "VEC2"
        },
        {
            "bufferView" : 7,
            "componentType" : 5126,
            "count" : 2304,
            "max" : [
                22.5,
                28.54364776611328,
                7.314009189605713
            ],
            "min" : [
                -22.5,
                -16.45635223388672,
                -1.6859936714172363
            ],
            "type" : "VEC3"
        },
        {
            "bufferView" : 8,
            "componentType" : 5126,
            "count" : 2304,
            "type" : "VEC3"
        },
        {
            "bufferView" : 9,
            "componentType" : 5126,
            "count" : 2304,
            "type" : "VEC2"
        },
        {
            "bufferView" : 10,
            "componentType" : 5126,
            "count" : 2304,
            "max" : [
                22.5,
                28.54364776611328,
                7.314009189605713
            ],
            "min" : [
                -22.5,
                -16.45635223388672,
                -1.6859936714172363
            ],
            "type" : "VEC3"
        },
        {
            "bufferView" : 11,
            "componentType" : 5126,
            "count" : 2304,
            "type" : "VEC3"
        },
        {
            "bufferView" : 12,
            "componentType" : 5126,
            "count" : 2304,
            "type" : "VEC2"
        },
        {
            "bufferView" : 13,
            "componentType" : 5126,
            "count" : 2304,
            "max" : [
                22.5,
                28.54364776611328,
                7.314009189605713
            ],
            "min" : [
                -22.5,
                -16.45635223388672,
                -1.6859936714172363
            ],
            "type" : "VEC3"
        },
        {
            "bufferView" : 14,
            "componentType" : 5126,
            "count" : 2304,
            "type" : "VEC3"
        },
        {
            "bufferView" : 15,
            "componentType" : 5126,
            "count" : 2304,
            "type" : "VEC2"
        },
        {
            "bufferView" : 16,
            "componentType" : 5126,
            "count" : 2304,
            "max" : [
                22.5,
                28.54364776611328,
                7.314009189605713
            ],
            "min" : [
                -22.5,
                -16.45635223388672,
                -1.6859936714172363
            ],
            "type" : "VEC3"
        },
        {
            "bufferView" : 17,
            "componentType" : 5126,
            "count" : 2304,
            "type" : "VEC3"
        },
        {
            "bufferView" : 18,
            "componentType" : 5126,
            "count" : 2304,
            "type" : "VEC2"
        }
    ],
    "bufferViews" : [
        {
            "buffer" : 0,
            "byteLength" : 27648,
            "byteOffset" : 0
        },
        {
            "buffer" : 0,
            "byteLength" : 27648,
            "byteOffset" : 27648
        },
        {
            "buffer" : 0,
            "byteLength" : 18432,
            "byteOffset" : 55296
        },
        {
            "buffer" : 0,
            "byteLength" : 6912,
            "byteOffset" : 73728
        },
        {
            "buffer" : 0,
            "byteLength" : 27648,
            "byteOffset" : 80640
        },
        {
            "buffer" : 0,
            "byteLength" : 27648,
            "byteOffset" : 108288
        },
        {
            "buffer" : 0,
            "byteLength" : 18432,
            "byteOffset" : 135936
        },
        {
            "buffer" : 0,
            "byteLength" : 27648,
            "byteOffset" : 154368
        },
        {
            "buffer" : 0,
            "byteLength" : 27648,
            "byteOffset" : 182016
        },
        {
            "buffer" : 0,
            "byteLength" : 18432,
            "byteOffset" : 209664
        },
        {
            "buffer" : 0,
            "byteLength" : 27648,
            "byteOffset" : 228096
        },
        {
            "buffer" : 0,
            "byteLength" : 27648,
            "byteOffset" : 255744
        },
        {
            "buffer" : 0,
            "byteLength" : 18432,
            "byteOffset" : 283392
        },
        {
            "buffer" : 0,
            "byteLength" : 27648,
            "byteOffset" : 301824
        },
        {
            "buffer" : 0,
            "byteLength" : 27648,
            "byteOffset" : 329472
        },
        {
            "buffer" : 0,
            "byteLength" : 18432,
            "byteOffset" : 357120
        },
        {
            "buffer" : 0,
            "byteLength" : 27648,
            "byteOffset" : 375552
        },
        {
            "buffer" : 0,
            "byteLength" : 27648,
            "byteOffset" : 403200
        },
        {
            "buffer" : 0,
            "byteLength" : 18432,
            "byteOffset" : 430848
        }
    ],
    "buffers" : [
        {
            "byteLength" : 449280,
            "uri" : "checkpoint_layout.bin"
        }
    ]
}
